<?xml version="1.0" encoding="UTF-8" standalone="no"?>
<!-- Created with Inkscape (http://www.inkscape.org/) -->

<svg
   version="1.1"
   id="svg337"
   width="500"
   height="500"
   viewBox="0 0 500 500"
   sodipodi:docname="logo.svg"
   inkscape:version="1.2.2 (b0a8486541, 2022-12-01)"
   xmlns:inkscape="http://www.inkscape.org/namespaces/inkscape"
   xmlns:sodipodi="http://sodipodi.sourceforge.net/DTD/sodipodi-0.dtd"
   xmlns="http://www.w3.org/2000/svg"
   xmlns:svg="http://www.w3.org/2000/svg">
  <defs
     id="defs341" />
  <sodipodi:namedview
     id="namedview339"
     pagecolor="#ffffff"
     bordercolor="#000000"
     borderopacity="0.25"
     inkscape:showpageshadow="2"
     inkscape:pageopacity="0.0"
     inkscape:pagecheckerboard="0"
     inkscape:deskcolor="#d1d1d1"
     showgrid="false"
     inkscape:zoom="1.027"
     inkscape:cx="476.14411"
     inkscape:cy="499.51315"
     inkscape:window-width="2538"
     inkscape:window-height="1383"
     inkscape:window-x="10"
     inkscape:window-y="45"
     inkscape:window-maximized="1"
     inkscape:current-layer="g345">
    <inkscape:page
       x="0"
       y="0"
       id="page343"
       width="500"
       height="500" />
  </sodipodi:namedview>
  <g
     id="g345"
     inkscape:groupmode="layer"
     inkscape:label="Page 1"
     transform="matrix(1.3333333,0,0,-1.3333333,0,1000)">
    <g
       id="g669"
       transform="matrix(0.74127358,0,0,0.74127358,-90.477545,321.28618)">
      <path
         d="m 314.853,476.707 0.929,-17.33 c 0.667,-12.439 10.881,-22.158 23.206,-22.082 l 47.772,0.295 c 12.325,0.076 22.418,9.921 22.931,22.368 l 0.717,17.393 -95.555,-0.644"
         style="fill:#3d3149;fill-opacity:1;fill-rule:nonzero;stroke:none;stroke-width:0.1"
         id="path363" />
      <path
         d="m 363.816,561.662 -11.578,-6.02 8.543,-6.421 6.254,0.027 7.009,5.611 -10.228,6.803"
         style="fill:#6f7bc5;fill-opacity:1;fill-rule:nonzero;stroke:none;stroke-width:0.1"
         id="path371" />
      <path
         d="m 360.781,549.221 -7.224,-57.083 10.467,-10.295 10.589,9.479 -7.578,57.926 -6.254,-0.027"
         style="fill:#6f7bc5;fill-opacity:1;fill-rule:nonzero;stroke:none;stroke-width:0.1"
         id="path375" />
      <path
         d="m 514.764,84.5832 h -307.48 c -4.418,0 -8,3.5816 -8,8 v 0 c 0,4.4188 3.582,7.9998 8,7.9998 h 307.48 c 4.418,0 8,-3.581 8,-7.9998 v 0 c 0,-4.4184 -3.582,-8 -8,-8"
         style="fill:#d3af9b;fill-opacity:1;fill-rule:nonzero;stroke:none;stroke-width:0.1"
         id="path389" />
      <path
         d="m 323.033,98.2531 h -45.584 l -13.436,90.0229 h 65.738 l -6.718,-90.0229"
         style="fill:#679592;fill-opacity:1;fill-rule:nonzero;stroke:none;stroke-width:0.1"
         id="path391" />
      <path
         d="m 423.953,98.2531 h 45.584 l 13.436,90.0229 h -65.738 l 6.718,-90.0229"
         style="fill:#679592;fill-opacity:1;fill-rule:nonzero;stroke:none;stroke-width:0.1"
         id="path393" />
      <path
         d="m 616.647,360.093 -59.812,3.877 -0.074,-0.331 c -23.546,75.524 -101.596,130.982 -194.264,130.982 -111.31,0 -201.544,-80.007 -201.544,-178.701 0,-98.695 90.234,-178.702 201.544,-178.702 70.4,0 132.357,32.012 168.399,80.507 31.68,16.834 55.007,16.794 64.122,25.652 l 13.094,28.368 c 1.131,0.096 4.602,0.23 5.611,0.481 l 2.924,87.867"
         style="fill:#7eb8b1;fill-opacity:1;fill-rule:nonzero;stroke:none;stroke-width:0.1"
         id="path395" />
      <path
         d="m 296.511,98.2531 h -45.584 l -13.436,90.0229 h 65.738 l -6.718,-90.0229"
         style="fill:#7eb8b1;fill-opacity:1;fill-rule:nonzero;stroke:none;stroke-width:0.1"
         id="path397" />
      <path
         d="m 397.431,98.2531 h 45.584 l 13.436,90.0229 h -65.738 l 6.718,-90.0229"
         style="fill:#7eb8b1;fill-opacity:1;fill-rule:nonzero;stroke:none;stroke-width:0.1"
         id="path399" />
      <path
         d="m 616.647,360.093 -59.812,3.877 -0.074,-0.331 c -23.546,75.524 -101.596,130.982 -194.264,130.982 -80.636,0 -150.2,-41.994 -182.423,-102.657 -26.384,-89.053 43.793,-227.872 192.397,-227.872 92,0 137.5,78.5 137.5,78.5 l 93.482,19.06 4.659,10.093 c 1.131,0.096 4.602,0.23 5.611,0.481 l 2.924,87.867"
         style="fill:#93c2bc;fill-opacity:1;fill-rule:nonzero;stroke:none;stroke-width:0.1"
         id="path401" />
      <path
         d="m 534.481,407.492 c 3.233,26.644 24.001,44.898 27.622,64.22 3.62,19.322 -67.574,-11.862 -98.003,-23.702 l 70.381,-40.518"
         style="fill:#93c2bc;fill-opacity:1;fill-rule:nonzero;stroke:none;stroke-width:0.1"
         id="path403" />
      <path
         d="m 163.506,329.897 c 0,-16.322 -37.001,-16.373 -35.092,6.529 -0.816,8.161 -29.38,-44.885 41.621,-39.989 l -6.529,33.46"
         style="fill:#7eb8b1;fill-opacity:1;fill-rule:nonzero;stroke:none;stroke-width:0.1"
         id="path405" />
      <path
         d="m 427.826,440.402 h -130.64 c -9.374,0 -16.973,7.599 -16.973,16.973 v 0 c 0,9.374 7.599,16.973 16.973,16.973 h 130.64 c 9.374,0 16.973,-7.599 16.973,-16.973 v 0 c 0,-9.374 -7.599,-16.973 -16.973,-16.973"
         style="fill:#6d9d9a;fill-opacity:1;fill-rule:nonzero;stroke:none;stroke-width:0.1"
         id="path407" />
      <path
         d="m 297.186,453.774 c -5.502,0 -10.377,-2.629 -13.479,-6.686 3.102,-4.057 7.977,-6.686 13.479,-6.686 h 130.64 c 5.501,0 10.377,2.629 13.478,6.686 -3.101,4.057 -7.977,6.686 -13.478,6.686 h -130.64"
         style="fill:#456263;fill-opacity:1;fill-rule:nonzero;stroke:none;stroke-width:0.1"
         id="path409" />
      <path
         d="m 518.511,369.886 c 0,-8.113 -4.567,-14.689 -10.201,-14.689 -5.634,0 -10.202,6.576 -10.202,14.689 0,8.113 4.568,14.69 10.202,14.69 5.634,0 10.201,-6.577 10.201,-14.69"
         style="fill:#3b3d46;fill-opacity:1;fill-rule:nonzero;stroke:none;stroke-width:0.1"
         id="path411" />
      <path
         d="m 613.723,272.226 c -9.77,0 -14.221,30.4 -14.221,58.647 0,18.599 1.605,29.368 9.803,29.368 0.774,0 1.543,-0.084 2.289,-0.165 0.738,-0.081 1.436,-0.156 2.129,-0.156 0.692,0 1.39,0.075 2.129,0.156 0.745,0.081 1.516,0.165 2.289,0.165 8.199,0 9.802,-10.769 9.802,-29.368 0,-28.247 -4.449,-58.647 -14.22,-58.647"
         style="fill:#7eb8b1;fill-opacity:1;fill-rule:nonzero;stroke:none;stroke-width:0.1"
         id="path413" />
      <path
         d="m 611.139,332.346 c 0,-5.296 -1.142,-9.59 -2.551,-9.59 -1.408,0 -2.55,4.294 -2.55,9.59 0,5.296 1.142,9.589 2.55,9.589 1.409,0 2.551,-4.293 2.551,-9.589"
         style="fill:#405a5b;fill-opacity:1;fill-rule:nonzero;stroke:none;stroke-width:0.1"
         id="path415" />
      <path
         d="m 624.604,332.346 c 0,-5.296 -1.141,-9.59 -2.55,-9.59 -1.408,0 -2.55,4.294 -2.55,9.59 0,5.296 1.142,9.589 2.55,9.589 1.409,0 2.55,-4.293 2.55,-9.589"
         style="fill:#405a5b;fill-opacity:1;fill-rule:nonzero;stroke:none;stroke-width:0.1"
         id="path417" />
      <path
         d="m 435.471,492.099 c 0,40.939 -33.188,74.127 -74.127,74.127 -40.939,0 -74.126,-33.188 -74.126,-74.127 0,-40.939 33.187,-74.127 74.126,-74.127 40.939,0 74.127,33.188 74.127,74.127"
         style="fill:#f89f2c;fill-opacity:1;fill-rule:nonzero;stroke:none;stroke-width:0.1"
         id="path419" />
      <path
         d="m 413.727,492.099 c 0,28.93 -23.453,52.383 -52.383,52.383 -28.93,0 -52.383,-23.453 -52.383,-52.383 0,-28.93 23.453,-52.383 52.383,-52.383 28.93,0 52.383,23.453 52.383,52.383"
         style="fill:#ef731f;fill-opacity:1;fill-rule:nonzero;stroke:none;stroke-width:0.1"
         id="path421" />
      <path
         d="m 357.997,463.114 -14.695,-1.451 -1.637,18.141 19.505,-0.816 0.366,5.171 -19.051,10.888 1.633,22.589 13.606,1.451 -0.181,8.162 6.711,0.455 -0.181,-8.347 13.61,0.454 -0.092,-15.15 -15.693,-0.089 -0.274,-3.357 17.511,-8.982 -1.452,-27.306 -13.337,-1.362 0.093,-8.163 -6.442,-0.546 v 8.258"
         style="fill:#f89f2c;fill-opacity:1;fill-rule:nonzero;stroke:none;stroke-width:0.1"
         id="path423" />
      <path
         d="m 444.721,458.918 c 0.046,-0.509 0.078,-1.022 0.078,-1.543 0,-9.374 -7.599,-16.973 -16.973,-16.973 h -130.64 c -9.374,0 -16.973,7.599 -16.973,16.973 0,0.521 0.032,1.034 0.078,1.543 H 267.354 V 403.37 h 187.217 v 55.548 h -9.85"
         style="fill:#93c2bc;fill-opacity:1;fill-rule:nonzero;stroke:none;stroke-width:0.1"
         id="path425" />
      <path
         d="m 422.296,338.259 c 0,-48.049 -50.89,-87 -113.666,-87 -62.777,0 -113.667,38.951 -113.667,87 0,48.049 50.89,87 113.667,87 62.776,0 113.666,-38.951 113.666,-87"
         style="fill:#9ed1c9;fill-opacity:1;fill-rule:nonzero;stroke:none;stroke-width:0.1"
         id="path427" />
    </g>
  </g>
</svg>
